# Blender v2.93.4 OBJ File: ''
# www.blender.org
mtllib greenhouse.mtl
o Cube.002_Cube.003
v 0.100000 0.000000 2.550000
v 0.100000 2.871922 2.550000
v 0.100000 0.000000 2.450000
v 0.100000 2.871922 2.450000
v 3.900000 1.921922 2.550000
v 3.900000 1.921922 2.450000
v 0.000000 3.000000 2.450000
v 0.000000 0.000000 2.450000
v 4.000000 2.000000 2.450000
v 0.000000 0.000000 2.550000
v 0.000000 3.000000 2.550000
v 4.000000 2.000000 2.550000
v 4.000000 0.100000 2.450000
v 4.000000 0.100000 2.550000
v 3.900000 0.100000 2.450000
v 3.900000 0.100000 2.550000
v 4.000000 0.100000 0.100000
v 3.900000 0.100000 0.100000
v 3.900000 0.000000 0.100000
v 4.000000 0.100000 4.900000
v 3.900000 0.100000 4.900000
v 3.900000 0.000000 4.900000
v 0.100000 0.100000 5.000000
v 0.100000 2.871922 5.000000
v 0.100000 0.100000 4.900000
v 0.100000 2.871922 4.900000
v 3.900000 0.100000 5.000000
v 3.900000 1.921922 5.000000
v 3.900000 0.100000 4.900000
v 3.900000 1.921922 4.900000
v 0.000000 3.000000 4.900000
v 0.000000 0.000000 4.900000
v 4.000000 2.000000 4.900000
v 0.000000 0.000000 5.000000
v 0.000000 3.000000 5.000000
v 4.000000 2.000000 5.000000
v 4.000000 0.000000 5.000000
v 0.100000 0.100000 0.100000
v 0.100000 2.871922 0.100000
v 0.100000 0.100000 -0.000000
v 0.100000 2.871922 -0.000000
v 3.900000 0.100000 0.100000
v 3.900000 1.921922 0.100000
v 3.900000 0.100000 -0.000000
v 3.900000 1.921922 -0.000000
v 0.000000 3.000000 -0.000000
v 0.000000 0.000000 -0.000000
v 4.000000 0.000000 -0.000000
v 4.000000 2.000000 -0.000000
v 0.000000 0.000000 0.100000
v 0.000000 3.000000 0.100000
v 4.000000 2.000000 0.100000
vt 0.375000 0.000000
vt 0.625000 0.000000
vt 0.625000 0.250000
vt 0.375000 0.250000
vt 0.625000 0.500000
vt 0.875000 0.500000
vt 0.875000 0.750000
vt 0.625000 0.750000
vt 0.616059 0.256250
vt 0.383829 0.256250
vt 0.613022 0.493750
vt 0.398615 0.493750
vt 0.387500 0.500000
vt 0.383829 0.993750
vt 0.616059 0.993750
vt 0.625000 1.000000
vt 0.375000 1.000000
vt 0.613022 0.756250
vt 0.398615 0.756250
vt 0.387500 0.750000
vt 0.387500 0.500000
vt 0.398615 0.493750
vt 0.398615 0.756250
vt 0.387500 0.750000
vt 0.375000 0.000000
vt 0.625000 0.000000
vt 0.625000 0.250000
vt 0.375000 0.250000
vt 0.386846 0.493750
vt 0.386846 0.756250
vt 0.613022 0.756250
vt 0.613022 0.493750
vt 0.383829 0.256250
vt 0.383829 0.993750
vt 0.625000 0.500000
vt 0.875000 0.500000
vt 0.875000 0.750000
vt 0.625000 0.750000
vt 0.616059 0.256250
vt 0.616059 0.993750
vt 0.625000 1.000000
vt 0.375000 1.000000
vt 0.375000 0.750000
vt 0.375000 0.000000
vt 0.625000 0.000000
vt 0.625000 0.250000
vt 0.375000 0.250000
vt 0.386846 0.493750
vt 0.386846 0.756250
vt 0.613022 0.756250
vt 0.613022 0.493750
vt 0.383829 0.256250
vt 0.383829 0.993750
vt 0.625000 0.500000
vt 0.875000 0.500000
vt 0.875000 0.750000
vt 0.625000 0.750000
vt 0.616059 0.256250
vt 0.375000 0.500000
vt 0.616059 0.993750
vt 0.625000 1.000000
vt 0.375000 1.000000
vt 0.000000 0.000000
vt 0.000000 0.000000
vn -1.0000 0.0000 0.0000
vn 0.2425 0.9701 0.0000
vn 0.0000 0.0000 -1.0000
vn 0.0000 0.0000 1.0000
vn -0.2425 -0.9701 0.0000
vn 1.0000 0.0000 0.0000
vn 0.0000 1.0000 0.0000
usemtl None
s off
f 10/1/1 11/2/1 7/3/1 8/4/1
f 9/5/2 7/6/2 11/7/2 12/8/2
f 4/9/3 3/10/3 8/4/3 7/3/3
f 6/11/3 4/9/3 7/3/3 9/5/3
f 15/12/3 6/11/3 9/5/3 13/13/3
f 1/14/4 2/15/4 11/16/4 10/17/4
f 2/15/4 5/18/4 12/8/4 11/16/4
f 4/9/5 6/11/5 5/18/5 2/15/5
f 4/9/6 2/15/6 1/14/6 3/10/6
f 5/18/4 16/19/4 14/20/4 12/8/4
f 15/12/7 13/13/7 17/21/7 18/22/7
f 14/20/7 16/19/7 21/23/7 20/24/7
f 34/25/1 35/26/1 31/27/1 32/28/1
f 29/29/1 27/30/1 28/31/1 30/32/1
f 29/29/7 25/33/7 23/34/7 27/30/7
f 33/35/2 31/36/2 35/37/2 36/38/2
f 26/39/3 25/33/3 32/28/3 31/27/3
f 30/32/3 26/39/3 31/27/3 33/35/3
f 23/34/4 24/40/4 35/41/4 34/42/4
f 28/31/4 27/30/4 37/43/4 36/38/4
f 27/30/4 23/34/4 34/42/4 37/43/4
f 24/40/4 28/31/4 36/38/4 35/41/4
f 26/39/5 30/32/5 28/31/5 24/40/5
f 26/39/6 24/40/6 23/34/6 25/33/6
f 50/44/1 51/45/1 46/46/1 47/47/1
f 44/48/1 42/49/1 43/50/1 45/51/1
f 44/48/7 40/52/7 38/53/7 42/49/7
f 49/54/2 46/55/2 51/56/2 52/57/2
f 41/58/3 40/52/3 47/47/3 46/46/3
f 40/52/3 44/48/3 48/59/3 47/47/3
f 45/51/3 41/58/3 46/46/3 49/54/3
f 44/48/3 45/51/3 49/54/3 48/59/3
f 38/53/4 39/60/4 51/61/4 50/62/4
f 39/60/4 43/50/4 52/57/4 51/61/4
f 41/58/5 45/51/5 43/50/5 39/60/5
f 41/58/6 39/60/6 38/53/6 40/52/6
f 9/5/6 12/8/6 14/20/6 20/24/6 33/35/6 36/38/6 37/43/6 48/59/6 49/54/6 52/57/6 17/21/6 13/13/6
f 30/32/3 33/35/3 20/24/3 29/29/3
f 43/50/4 42/49/4 17/21/4 52/57/4
f 16/19/1 5/18/1 6/11/1 15/12/1 18/22/1 19/63/1 22/64/1 21/23/1
f 22/64/3 32/28/3 25/33/3 29/29/3 21/23/3
f 18/22/4 42/49/4 38/53/4 50/62/4 19/63/4
