# Blender v2.93.4 OBJ File: ''
# www.blender.org
mtllib home_exterior.mtl
o Home_Cube_Cube.002
v 0.000000 -0.000001 8.500000
v 0.000000 3.199999 8.500001
v 0.000000 3.199999 8.100002
v 0.000000 2.999999 8.100002
v 0.000000 3.000000 0.400000
v 0.000000 3.200000 0.400001
v 0.000000 3.200000 0.000001
v 0.000000 0.000000 0.000000
v 4.000000 3.000000 0.400000
v 4.000000 3.000000 0.000000
v 4.000000 3.200000 0.000001
v 4.000000 3.200000 0.400001
v 3.525000 2.999999 8.100002
v 2.000000 4.525000 8.100002
v 0.475000 2.999999 8.100002
v 0.400000 3.199999 8.100002
v 2.000000 4.799999 8.100002
v 3.600000 3.199999 8.100002
v 4.000000 3.199999 8.100002
v 4.000000 2.999999 8.100002
v 3.525000 3.000000 0.400000
v 4.000000 3.000000 3.500000
v 2.000000 4.525000 0.400001
v 0.475000 3.000000 0.400000
v 3.600000 3.199999 8.500002
v 4.000000 3.199999 8.500001
v 2.000000 4.799999 8.500003
v 0.400000 3.199999 8.500002
v 3.600000 3.200000 0.400001
v 2.000000 4.800000 0.400001
v 0.400000 3.200000 0.400001
v 3.600000 3.200000 0.000001
v 2.000000 4.800000 0.000001
v 0.400000 3.200000 0.000001
v 4.000000 -0.000001 8.500000
v 1.500000 -0.000001 8.500000
v 1.500000 1.979998 8.500000
v 2.500000 1.979998 8.500000
v 2.500000 -0.000001 8.500000
v 4.000000 -0.000001 5.000000
v 4.000000 1.979999 5.000000
v 4.000000 1.979999 4.000000
v 4.000000 -0.000001 4.000000
v 4.000000 -0.000001 3.500000
v 2.500000 1.979998 8.250000
v 2.500000 -0.000001 8.250000
v 1.500000 -0.000001 8.250000
v 1.500000 1.979998 8.250000
v 3.750000 -0.000001 5.000000
v 3.750000 1.979999 5.000000
v 3.750000 1.979999 4.000000
v 3.750000 -0.000001 4.000000
v 8.000000 0.000000 0.000000
v 8.000000 3.000000 0.000000
v 8.000000 4.000000 1.750001
v 8.000000 3.000000 3.500000
v 8.000000 -0.000001 3.500000
v 2.000000 4.000000 1.750001
v 3.000000 3.000000 3.500000
v 3.000000 3.000000 0.000000
v 2.000000 4.525000 4.250002
v 3.525000 2.999999 4.250001
v 0.475000 2.999999 4.250001
v 2.000000 4.525000 6.175001
v 3.525000 2.999999 6.175002
v 0.475000 2.999999 6.175002
v 2.000000 4.525000 2.325001
v 3.525000 3.000000 2.325001
v 0.475000 3.000000 2.325001
v 2.000000 4.599999 6.250001
v 3.600000 2.999999 6.250000
v 0.400000 2.999999 6.250000
v 2.000000 4.599999 6.100001
v 3.600000 2.999999 6.100000
v 0.400000 2.999999 6.100000
v 2.000000 4.600000 4.175001
v 3.600000 3.000000 4.175000
v 0.400000 3.000000 4.175000
v 2.000000 4.599999 2.250000
v 3.600000 3.000000 2.250000
v 0.400000 3.000000 2.250000
v 2.000000 4.599999 4.325000
v 3.600000 2.999999 4.325000
v 0.400000 2.999999 4.325000
v 2.000000 4.600000 2.400000
v 3.600000 2.999999 2.400000
v 0.400000 2.999999 2.400000
v 2.000000 4.599998 8.025000
v 3.600000 2.999999 8.025000
v 0.400000 2.999999 8.025000
v 2.000000 4.600000 0.475000
v 3.600000 3.000000 0.475000
v 0.400000 3.000000 0.475000
vt 0.375000 0.000000
vt 0.625000 0.000000
vt 0.625000 0.011765
vt 0.625000 0.011765
vt 0.625000 0.238235
vt 0.625000 0.238235
vt 0.625000 0.250000
vt 0.375000 0.250000
vt 0.625000 0.511741
vt 0.738636 0.500000
vt 0.625000 0.500000
vt 0.625000 0.511741
vt 0.647905 0.738235
vt 0.746829 0.738235
vt 0.844205 0.738235
vt 0.875000 0.738235
vt 0.875000 0.738235
vt 0.844205 0.738235
vt 0.746829 0.738235
vt 0.647905 0.738235
vt 0.625000 0.738219
vt 0.625000 0.738219
vt 0.745604 0.525919
vt 0.745522 0.511765
vt 0.842519 0.511765
vt 0.842624 0.525919
vt 0.647041 0.525919
vt 0.646983 0.511765
vt 0.000000 0.000000
vt 0.000000 0.000000
vt 0.647953 0.750000
vt 0.625000 0.750000
vt 0.746897 0.750000
vt 0.844293 0.750000
vt 0.875000 0.750000
vt 0.875000 0.511765
vt 0.646983 0.511765
vt 0.745522 0.511765
vt 0.842519 0.511765
vt 0.875000 0.511765
vt 0.646935 0.500000
vt 0.745454 0.500000
vt 0.842432 0.500000
vt 0.875000 0.500000
vt 0.375000 0.750000
vt 0.625000 0.772953
vt 0.625000 0.871897
vt 0.625000 0.969293
vt 0.625000 1.000000
vt 0.375000 1.000000
vt 0.375000 0.906250
vt 0.540000 0.906250
vt 0.540000 0.843750
vt 0.375000 0.843750
vt 0.375000 0.648090
vt 0.540000 0.646543
vt 0.540000 0.616984
vt 0.375000 0.618973
vt 0.375000 0.604414
vt 0.625000 0.601066
vt 0.540000 0.843750
vt 0.375000 0.843750
vt 0.375000 0.906250
vt 0.540000 0.906250
vt 0.375000 0.648090
vt 0.540000 0.646543
vt 0.540000 0.616984
vt 0.375000 0.618973
vt 0.375000 0.500000
vt 0.625000 0.500000
vt 0.625000 0.625000
vt 0.625000 0.750000
vt 0.375000 0.750000
vt 0.625000 1.000000
vt 0.375000 1.000000
vt 0.875000 0.625000
vt 0.875000 0.750000
vt 0.875000 0.500000
vt 0.647502 0.639154
vt 0.647444 0.625000
vt 0.746176 0.625000
vt 0.746257 0.639154
vt 0.843362 0.625000
vt 0.843467 0.639154
vt 0.746666 0.709926
vt 0.746502 0.681617
vt 0.843783 0.681617
vt 0.843994 0.709926
vt 0.647790 0.709926
vt 0.647675 0.681617
vt 0.647271 0.582537
vt 0.647213 0.568383
vt 0.745849 0.568383
vt 0.745930 0.582537
vt 0.842940 0.568383
vt 0.843046 0.582537
vt 0.647847 0.724081
vt 0.746747 0.724081
vt 0.844100 0.724081
vt 0.746339 0.653309
vt 0.843573 0.653309
vt 0.647559 0.653309
vt 0.746012 0.596691
vt 0.843151 0.596691
vt 0.647329 0.596691
vt 0.647098 0.540074
vt 0.745685 0.540074
vt 0.842730 0.540074
vn -1.0000 0.0000 0.0000
vn 1.0000 0.0000 0.0000
vn 0.0000 0.0000 -1.0000
vn -0.5773 0.5773 -0.5774
vn 0.5774 0.5774 -0.5774
vn 0.0000 1.0000 0.0000
vn -0.7071 0.7071 0.0000
vn 0.7071 0.7071 0.0000
vn 0.0000 -0.0000 1.0000
vn 0.0000 -1.0000 -0.0000
vn 0.0000 0.8682 0.4961
vn 0.0000 0.8682 -0.4961
vn 0.5773 0.5773 -0.5774
vn -0.5774 0.5773 -0.5773
vn 0.5774 0.5773 -0.5773
vn -0.5774 0.5774 0.5773
vn 0.5774 0.5774 0.5773
usemtl (null)
s off
f 1/1/1 2/2/1 3/3/1 4/4/1 5/5/1 6/6/1 7/7/1 8/8/1
f 9/9/2 10/10/2 11/11/2 12/12/2
f 13/13/3 14/14/3 15/15/3 4/16/3 3/17/3 16/18/3 17/19/3 18/20/3 19/21/3 20/22/3
f 91/23/4 23/24/4 24/25/4 93/26/4
f 92/27/5 21/28/5 23/24/5 91/23/5
f 4/4/6 20/29/6 9/30/6 5/5/6
f 19/21/6 18/20/6 25/31/6 26/32/6
f 27/33/7 17/19/7 16/18/7 28/34/7
f 25/31/8 18/20/8 17/19/8 27/33/8
f 28/34/6 16/18/6 3/17/6 2/35/6
f 5/36/9 24/25/9 23/24/9 21/28/9 9/9/9 12/12/9 29/37/9 30/38/9 31/39/9 6/40/9
f 29/37/8 32/41/8 33/42/8 30/38/8
f 31/39/6 34/43/6 7/44/6 6/40/6
f 30/38/7 33/42/7 34/43/7 31/39/7
f 11/11/6 32/41/6 29/37/6 12/12/6
f 35/45/9 26/32/9 25/46/9 27/47/9 28/48/9 2/49/9 1/50/9 36/51/9 37/52/9 38/53/9 39/54/9
f 35/45/2 40/55/2 41/56/2 42/57/2 43/58/2 44/59/2 22/60/2 20/22/2 19/21/2 26/32/2
f 39/54/1 38/53/1 45/61/1 46/62/1
f 37/52/2 36/51/2 47/63/2 48/64/2
f 38/53/10 37/52/10 48/64/10 45/61/10
f 41/56/3 40/55/3 49/65/3 50/66/3
f 43/58/9 42/57/9 51/67/9 52/68/9
f 42/57/10 41/56/10 50/66/10 51/67/10
f 53/69/2 54/70/2 55/71/2 56/72/2 57/73/2
f 57/73/9 56/72/9 22/74/9 44/75/9
f 55/71/11 58/76/11 59/77/11 56/72/11
f 54/70/12 10/10/12 60/78/12 58/76/12 55/71/12
f 11/11/3 10/10/3 54/70/3 53/69/3 8/8/3 7/7/3 34/43/3 33/42/3 32/41/3
f 83/79/13 62/80/13 61/81/13 82/82/13
f 82/82/4 61/81/4 63/83/4 84/84/4
f 70/85/14 64/86/14 66/87/14 72/88/14
f 71/89/15 65/90/15 64/86/15 70/85/15
f 86/91/13 68/92/13 67/93/13 85/94/13
f 85/94/4 67/93/4 69/95/4 87/96/4
f 89/97/8 71/89/8 70/85/8 88/98/8
f 88/98/7 70/85/7 72/88/7 90/99/7
f 64/86/16 73/100/16 75/101/16 66/87/16
f 65/90/17 74/102/17 73/100/17 64/86/17
f 61/81/16 76/103/16 78/104/16 63/83/16
f 62/80/17 77/105/17 76/103/17 61/81/17
f 68/92/17 80/106/17 79/107/17 67/93/17
f 67/93/16 79/107/16 81/108/16 69/95/16
f 73/100/7 82/82/7 84/84/7 75/101/7
f 74/102/8 83/79/8 82/82/8 73/100/8
f 76/103/7 85/94/7 87/96/7 78/104/7
f 77/105/8 86/91/8 85/94/8 76/103/8
f 14/14/16 88/98/16 90/99/16 15/15/16
f 13/13/17 89/97/17 88/98/17 14/14/17
f 80/106/8 92/27/8 91/23/8 79/107/8
f 79/107/7 91/23/7 93/26/7 81/108/7
